<svg xmlns="http://www.w3.org/2000/svg" viewBox="20 0 380 400" width="380" height="400">
  <defs>
    <clipPath id="clip-0">
      <ellipse cx="110" cy="50" rx="70" ry="30"/>
    </clipPath>
    <clipPath id="clip-1">
      <polygon points="110,140 180,190 110,240 40,190"/>
    </clipPath>
    <clipPath id="clip-2">
      <rect x="240" y="150" width="140" height="80"/>
    </clipPath>
    <clipPath id="clip-3">
      <rect x="40" y="300" width="140" height="80"/>
    </clipPath>
  </defs>
  <g clip-path="url(#clip-0)" opacity="1" style="opacity:0.5">
    <line x1="-105.40657521073624" y1="49.914232981649064" x2="109.91423298164906" y2="265.40657521073626" stroke="#10b981" stroke-width="1.5" stroke-linecap="round"/>
    <line x1="-98.33269251906424" y1="42.845981170595394" x2="116.98811567332106" y2="258.33832339968257" stroke="#10b981" stroke-width="1.5" stroke-linecap="round"/>
    <line x1="-91.25880982739224" y1="35.77772935954175" x2="124.06199836499306" y2="251.27007158862892" stroke="#10b981" stroke-width="1.5" stroke-linecap="round"/>
    <line x1="-84.18492713572024" y1="28.70947754848811" x2="131.13588105666506" y2="244.20181977757528" stroke="#10b981" stroke-width="1.5" stroke-linecap="round"/>
    <line x1="-77.11104444404825" y1="21.64122573743441" x2="138.20976374833705" y2="237.13356796652158" stroke="#10b981" stroke-width="1.5" stroke-linecap="round"/>
    <line x1="-70.03716175237625" y1="14.572973926380769" x2="145.28364644000905" y2="230.06531615546794" stroke="#10b981" stroke-width="1.5" stroke-linecap="round"/>
    <line x1="-62.96327906070425" y1="7.504722115327112" x2="152.35752913168105" y2="222.9970643444143" stroke="#10b981" stroke-width="1.5" stroke-linecap="round"/>
    <line x1="-55.889396369032255" y1="0.4364703042734561" x2="159.43141182335305" y2="215.92881253336063" stroke="#10b981" stroke-width="1.5" stroke-linecap="round"/>
    <line x1="-48.81551367736026" y1="-6.631781506780214" x2="166.50529451502504" y2="208.86056072230696" stroke="#10b981" stroke-width="1.5" stroke-linecap="round"/>
    <line x1="-41.74163098568826" y1="-13.70003331783387" x2="173.57917720669704" y2="201.79230891125331" stroke="#10b981" stroke-width="1.5" stroke-linecap="round"/>
    <line x1="-34.66774829401626" y1="-20.768285128887527" x2="180.65305989836904" y2="194.72405710019964" stroke="#10b981" stroke-width="1.5" stroke-linecap="round"/>
    <line x1="-27.593865602344266" y1="-27.836536939941183" x2="187.72694259004103" y2="187.65580528914597" stroke="#10b981" stroke-width="1.5" stroke-linecap="round"/>
    <line x1="-20.51998291067227" y1="-34.90478875099484" x2="194.80082528171303" y2="180.58755347809233" stroke="#10b981" stroke-width="1.5" stroke-linecap="round"/>
    <line x1="-13.446100219000272" y1="-41.97304056204851" x2="201.87470797338503" y2="173.51930166703866" stroke="#10b981" stroke-width="1.5" stroke-linecap="round"/>
    <line x1="-6.372217527328274" y1="-49.041292373102166" x2="208.94859066505703" y2="166.451049855985" stroke="#10b981" stroke-width="1.5" stroke-linecap="round"/>
    <line x1="0.7016651643437228" y1="-56.10954418415583" x2="216.02247335672902" y2="159.38279804493135" stroke="#10b981" stroke-width="1.5" stroke-linecap="round"/>
    <line x1="7.77554785601572" y1="-63.177795995209486" x2="223.09635604840102" y2="152.31454623387768" stroke="#10b981" stroke-width="1.5" stroke-linecap="round"/>
    <line x1="14.849430547687717" y1="-70.24604780626315" x2="230.17023874007302" y2="145.246294422824" stroke="#10b981" stroke-width="1.5" stroke-linecap="round"/>
    <line x1="21.923313239359715" y1="-77.3142996173168" x2="237.24412143174501" y2="138.17804261177037" stroke="#10b981" stroke-width="1.5" stroke-linecap="round"/>
    <line x1="28.997195931031712" y1="-84.38255142837046" x2="244.318004123417" y2="131.1097908007167" stroke="#10b981" stroke-width="1.5" stroke-linecap="round"/>
    <line x1="36.07107862270371" y1="-91.45080323942412" x2="251.391886815089" y2="124.04153898966305" stroke="#10b981" stroke-width="1.5" stroke-linecap="round"/>
    <line x1="43.144961314375706" y1="-98.51905505047779" x2="258.46576950676103" y2="116.97328717860938" stroke="#10b981" stroke-width="1.5" stroke-linecap="round"/>
    <line x1="50.2188440060477" y1="-105.58730686153145" x2="265.53965219843303" y2="109.90503536755573" stroke="#10b981" stroke-width="1.5" stroke-linecap="round"/>
    <line x1="57.2927266977197" y1="-112.6555586725851" x2="272.61353489010503" y2="102.83678355650207" stroke="#10b981" stroke-width="1.5" stroke-linecap="round"/>
    <line x1="64.3666093893917" y1="-119.72381048363877" x2="279.687417581777" y2="95.7685317454484" stroke="#10b981" stroke-width="1.5" stroke-linecap="round"/>
    <line x1="71.4404920810637" y1="-126.79206229469243" x2="286.761300273449" y2="88.70027993439474" stroke="#10b981" stroke-width="1.5" stroke-linecap="round"/>
    <line x1="78.51437477273569" y1="-133.86031410574608" x2="293.835182965121" y2="81.63202812334109" stroke="#10b981" stroke-width="1.5" stroke-linecap="round"/>
    <line x1="85.58825746440769" y1="-140.92856591679976" x2="300.909065656793" y2="74.56377631228743" stroke="#10b981" stroke-width="1.5" stroke-linecap="round"/>
    <line x1="92.66214015607969" y1="-147.9968177278534" x2="307.982948348465" y2="67.49552450123377" stroke="#10b981" stroke-width="1.5" stroke-linecap="round"/>
    <line x1="99.73602284775168" y1="-155.06506953890707" x2="315.056831040137" y2="60.427272690180104" stroke="#10b981" stroke-width="1.5" stroke-linecap="round"/>
    <line x1="106.80990553942368" y1="-162.13332134996074" x2="322.130713731809" y2="53.35902087912645" stroke="#10b981" stroke-width="1.5" stroke-linecap="round"/>
  </g>
  <ellipse cx="110" cy="50" rx="70" ry="30" fill="none" stroke="#10b981" stroke-width="2" opacity="1"/>
  <text x="70" y="60" font-family="Inter, sans-serif" font-size="18" text-anchor="start" fill="#064e3b" opacity="1">start</text>
  <g clip-path="url(#clip-1)" opacity="1" style="opacity:0.5">
    <line x1="-133.31048192542448" y1="189.90312266676233" x2="109.90312266676234" y2="433.3104819254245" stroke="#f59e0b" stroke-width="1.5" stroke-linecap="round"/>
    <line x1="-126.2365992337525" y1="182.8348708557087" x2="116.97700535843434" y2="426.24223011437084" stroke="#f59e0b" stroke-width="1.5" stroke-linecap="round"/>
    <line x1="-119.1627165420805" y1="175.76661904465504" x2="124.05088805010634" y2="419.1739783033172" stroke="#f59e0b" stroke-width="1.5" stroke-linecap="round"/>
    <line x1="-112.0888338504085" y1="168.69836723360135" x2="131.12477074177832" y2="412.1057264922635" stroke="#f59e0b" stroke-width="1.5" stroke-linecap="round"/>
    <line x1="-105.01495115873651" y1="161.6301154225477" x2="138.19865343345032" y2="405.03747468120986" stroke="#f59e0b" stroke-width="1.5" stroke-linecap="round"/>
    <line x1="-97.94106846706451" y1="154.561863611494" x2="145.27253612512231" y2="397.96922287015616" stroke="#f59e0b" stroke-width="1.5" stroke-linecap="round"/>
    <line x1="-90.86718577539251" y1="147.49361180044036" x2="152.3464188167943" y2="390.9009710591025" stroke="#f59e0b" stroke-width="1.5" stroke-linecap="round"/>
    <line x1="-83.79330308372052" y1="140.42535998938672" x2="159.4203015084663" y2="383.8327192480489" stroke="#f59e0b" stroke-width="1.5" stroke-linecap="round"/>
    <line x1="-76.71942039204852" y1="133.35710817833308" x2="166.4941842001383" y2="376.76446743699523" stroke="#f59e0b" stroke-width="1.5" stroke-linecap="round"/>
    <line x1="-69.64553770037651" y1="126.28885636727941" x2="173.56806689181033" y2="369.6962156259416" stroke="#f59e0b" stroke-width="1.5" stroke-linecap="round"/>
    <line x1="-62.57165500870452" y1="119.22060455622574" x2="180.64194958348233" y2="362.6279638148879" stroke="#f59e0b" stroke-width="1.5" stroke-linecap="round"/>
    <line x1="-55.49777231703253" y1="112.1523527451721" x2="187.7158322751543" y2="355.55971200383425" stroke="#f59e0b" stroke-width="1.5" stroke-linecap="round"/>
    <line x1="-48.42388962536053" y1="105.08410093411842" x2="194.7897149668263" y2="348.49146019278055" stroke="#f59e0b" stroke-width="1.5" stroke-linecap="round"/>
    <line x1="-41.35000693368853" y1="98.01584912306475" x2="201.8635976584983" y2="341.4232083817269" stroke="#f59e0b" stroke-width="1.5" stroke-linecap="round"/>
    <line x1="-34.27612424201652" y1="90.94759731201111" x2="208.93748035017032" y2="334.35495657067327" stroke="#f59e0b" stroke-width="1.5" stroke-linecap="round"/>
    <line x1="-27.202241550344525" y1="83.87934550095744" x2="216.01136304184232" y2="327.2867047596196" stroke="#f59e0b" stroke-width="1.5" stroke-linecap="round"/>
    <line x1="-20.128358858672527" y1="76.81109368990377" x2="223.0852457335143" y2="320.2184529485659" stroke="#f59e0b" stroke-width="1.5" stroke-linecap="round"/>
    <line x1="-13.05447616700053" y1="69.74284187885013" x2="230.1591284251863" y2="313.1502011375123" stroke="#f59e0b" stroke-width="1.5" stroke-linecap="round"/>
    <line x1="-5.980593475328533" y1="62.67459006779646" x2="237.2330111168583" y2="306.0819493264586" stroke="#f59e0b" stroke-width="1.5" stroke-linecap="round"/>
    <line x1="1.0932892163434644" y1="55.606338256742816" x2="244.3068938085303" y2="299.01369751540494" stroke="#f59e0b" stroke-width="1.5" stroke-linecap="round"/>
    <line x1="8.167171908015447" y1="48.538086445689146" x2="251.38077650020227" y2="291.9454457043513" stroke="#f59e0b" stroke-width="1.5" stroke-linecap="round"/>
    <line x1="15.241054599687445" y1="41.469834634635475" x2="258.45465919187427" y2="284.87719389329766" stroke="#f59e0b" stroke-width="1.5" stroke-linecap="round"/>
    <line x1="22.314937291359442" y1="34.40158282358183" x2="265.52854188354627" y2="277.808942082244" stroke="#f59e0b" stroke-width="1.5" stroke-linecap="round"/>
    <line x1="29.38881998303144" y1="27.333331012528163" x2="272.60242457521827" y2="270.7406902711903" stroke="#f59e0b" stroke-width="1.5" stroke-linecap="round"/>
    <line x1="36.462702674703436" y1="20.26507920147452" x2="279.67630726689026" y2="263.6724384601367" stroke="#f59e0b" stroke-width="1.5" stroke-linecap="round"/>
    <line x1="43.536585366375434" y1="13.19682739042085" x2="286.75018995856226" y2="256.604186649083" stroke="#f59e0b" stroke-width="1.5" stroke-linecap="round"/>
    <line x1="50.61046805804743" y1="6.12857557936718" x2="293.82407265023426" y2="249.53593483802933" stroke="#f59e0b" stroke-width="1.5" stroke-linecap="round"/>
    <line x1="57.68435074971943" y1="-0.9396762316864766" x2="300.89795534190625" y2="242.4676830269757" stroke="#f59e0b" stroke-width="1.5" stroke-linecap="round"/>
    <line x1="64.75823344139143" y1="-8.007928042740133" x2="307.97183803357825" y2="235.39943121592202" stroke="#f59e0b" stroke-width="1.5" stroke-linecap="round"/>
    <line x1="71.83211613306342" y1="-15.07617985379379" x2="315.04572072525025" y2="228.33117940486835" stroke="#f59e0b" stroke-width="1.5" stroke-linecap="round"/>
    <line x1="78.90599882473542" y1="-22.144431664847446" x2="322.11960341692225" y2="221.2629275938147" stroke="#f59e0b" stroke-width="1.5" stroke-linecap="round"/>
    <line x1="85.97988151640742" y1="-29.212683475901116" x2="329.19348610859424" y2="214.19467578276104" stroke="#f59e0b" stroke-width="1.5" stroke-linecap="round"/>
    <line x1="93.05376420807941" y1="-36.28093528695477" x2="336.26736880026624" y2="207.12642397170737" stroke="#f59e0b" stroke-width="1.5" stroke-linecap="round"/>
    <line x1="100.12764689975141" y1="-43.34918709800843" x2="343.34125149193824" y2="200.05817216065373" stroke="#f59e0b" stroke-width="1.5" stroke-linecap="round"/>
    <line x1="107.20152959142341" y1="-50.417438909062085" x2="350.41513418361023" y2="192.98992034960008" stroke="#f59e0b" stroke-width="1.5" stroke-linecap="round"/>
  </g>
  <polygon points="110,140 180,190 110,240 40,190" fill="none" stroke="#f59e0b" stroke-width="2" opacity="1"/>
  <text x="75" y="196" font-family="Inter, sans-serif" font-size="16" text-anchor="start" fill="#78350f" opacity="1">valid?</text>
  <g clip-path="url(#clip-2)" opacity="1" style="opacity:0.5">
    <line x1="81.96493305583964" y1="189.9092047782101" x2="309.9092047782101" y2="418.03506694416035" stroke="#3b82f6" stroke-width="1.5" stroke-linecap="round"/>
    <line x1="89.03881574751163" y1="182.84095296715645" x2="316.9830874698821" y2="410.9668151331067" stroke="#3b82f6" stroke-width="1.5" stroke-linecap="round"/>
    <line x1="96.11269843918363" y1="175.7727011561028" x2="324.0569701615541" y2="403.89856332205306" stroke="#3b82f6" stroke-width="1.5" stroke-linecap="round"/>
    <line x1="103.18658113085563" y1="168.7044493450491" x2="331.1308528532261" y2="396.83031151099937" stroke="#3b82f6" stroke-width="1.5" stroke-linecap="round"/>
    <line x1="110.26046382252763" y1="161.63619753399547" x2="338.2047355448981" y2="389.7620596999457" stroke="#3b82f6" stroke-width="1.5" stroke-linecap="round"/>
    <line x1="117.33434651419962" y1="154.56794572294183" x2="345.2786182365701" y2="382.6938078888921" stroke="#3b82f6" stroke-width="1.5" stroke-linecap="round"/>
    <line x1="124.40822920587162" y1="147.4996939118882" x2="352.3525009282421" y2="375.62555607783844" stroke="#3b82f6" stroke-width="1.5" stroke-linecap="round"/>
    <line x1="131.48211189754363" y1="140.4314421008345" x2="359.4263836199141" y2="368.55730426678474" stroke="#3b82f6" stroke-width="1.5" stroke-linecap="round"/>
    <line x1="138.55599458921563" y1="133.36319028978085" x2="366.5002663115861" y2="361.4890524557311" stroke="#3b82f6" stroke-width="1.5" stroke-linecap="round"/>
    <line x1="145.62987728088763" y1="126.29493847872718" x2="373.57414900325807" y2="354.42080064467746" stroke="#3b82f6" stroke-width="1.5" stroke-linecap="round"/>
    <line x1="152.70375997255962" y1="119.2266866676735" x2="380.64803169493007" y2="347.35254883362376" stroke="#3b82f6" stroke-width="1.5" stroke-linecap="round"/>
    <line x1="159.77764266423162" y1="112.15843485661986" x2="387.72191438660207" y2="340.2842970225701" stroke="#3b82f6" stroke-width="1.5" stroke-linecap="round"/>
    <line x1="166.85152535590362" y1="105.09018304556619" x2="394.79579707827406" y2="333.2160452115164" stroke="#3b82f6" stroke-width="1.5" stroke-linecap="round"/>
    <line x1="173.92540804757562" y1="98.02193123451255" x2="401.86967976994606" y2="326.1477934004628" stroke="#3b82f6" stroke-width="1.5" stroke-linecap="round"/>
    <line x1="180.9992907392476" y1="90.95367942345888" x2="408.94356246161806" y2="319.07954158940913" stroke="#3b82f6" stroke-width="1.5" stroke-linecap="round"/>
    <line x1="188.0731734309196" y1="83.88542761240521" x2="416.01744515329005" y2="312.0112897783555" stroke="#3b82f6" stroke-width="1.5" stroke-linecap="round"/>
    <line x1="195.1470561225916" y1="76.81717580135157" x2="423.09132784496205" y2="304.94303796730185" stroke="#3b82f6" stroke-width="1.5" stroke-linecap="round"/>
    <line x1="202.2209388142636" y1="69.7489239902979" x2="430.16521053663405" y2="297.87478615624815" stroke="#3b82f6" stroke-width="1.5" stroke-linecap="round"/>
    <line x1="209.2948215059356" y1="62.680672179244254" x2="437.23909322830605" y2="290.8065343451945" stroke="#3b82f6" stroke-width="1.5" stroke-linecap="round"/>
    <line x1="216.3687041976076" y1="55.612420368190584" x2="444.31297591997804" y2="283.7382825341408" stroke="#3b82f6" stroke-width="1.5" stroke-linecap="round"/>
    <line x1="223.4425868892796" y1="48.54416855713691" x2="451.38685861165004" y2="276.67003072308717" stroke="#3b82f6" stroke-width="1.5" stroke-linecap="round"/>
    <line x1="230.5164695809516" y1="41.47591674608327" x2="458.46074130332204" y2="269.6017789120335" stroke="#3b82f6" stroke-width="1.5" stroke-linecap="round"/>
    <line x1="237.5903522726236" y1="34.4076649350296" x2="465.53462399499404" y2="262.5335271009799" stroke="#3b82f6" stroke-width="1.5" stroke-linecap="round"/>
    <line x1="244.6642349642956" y1="27.33941312397593" x2="472.60850668666603" y2="255.46527528992618" stroke="#3b82f6" stroke-width="1.5" stroke-linecap="round"/>
    <line x1="251.73811765596759" y1="20.27116131292229" x2="479.68238937833803" y2="248.39702347887254" stroke="#3b82f6" stroke-width="1.5" stroke-linecap="round"/>
    <line x1="258.8120003476396" y1="13.202909501868618" x2="486.75627207001" y2="241.32877166781887" stroke="#3b82f6" stroke-width="1.5" stroke-linecap="round"/>
    <line x1="265.8858830393116" y1="6.1346576908149615" x2="493.830154761682" y2="234.2605198567652" stroke="#3b82f6" stroke-width="1.5" stroke-linecap="round"/>
    <line x1="272.9597657309836" y1="-0.9335941202386948" x2="500.904037453354" y2="227.19226804571156" stroke="#3b82f6" stroke-width="1.5" stroke-linecap="round"/>
    <line x1="280.0336484226556" y1="-8.001845931292351" x2="507.977920145026" y2="220.12401623465792" stroke="#3b82f6" stroke-width="1.5" stroke-linecap="round"/>
    <line x1="287.10753111432757" y1="-15.070097742346022" x2="515.051802836698" y2="213.05576442360422" stroke="#3b82f6" stroke-width="1.5" stroke-linecap="round"/>
    <line x1="294.18141380599957" y1="-22.138349553399678" x2="522.12568552837" y2="205.98751261255057" stroke="#3b82f6" stroke-width="1.5" stroke-linecap="round"/>
    <line x1="301.25529649767157" y1="-29.206601364453334" x2="529.199568220042" y2="198.91926080149693" stroke="#3b82f6" stroke-width="1.5" stroke-linecap="round"/>
    <line x1="308.32917918934356" y1="-36.27485317550699" x2="536.273450911714" y2="191.85100899044326" stroke="#3b82f6" stroke-width="1.5" stroke-linecap="round"/>
  </g>
  <rect x="240" y="150" width="140" height="80" fill="none" stroke="#3b82f6" stroke-width="2" opacity="1"/>
  <text x="270" y="196" font-family="Inter, sans-serif" font-size="16" text-anchor="start" fill="#1e3a8a" opacity="1">process</text>
  <g clip-path="url(#clip-3)" opacity="1" style="opacity:0.5">
    <line x1="-118.03506694416036" y1="339.9092047782101" x2="109.90920477821011" y2="568.0350669441603" stroke="#ef4444" stroke-width="1.5" stroke-linecap="round"/>
    <line x1="-110.96118425248837" y1="332.84095296715645" x2="116.98308746988211" y2="560.9668151331067" stroke="#ef4444" stroke-width="1.5" stroke-linecap="round"/>
    <line x1="-103.88730156081635" y1="325.7727011561028" x2="124.05697016155412" y2="553.8985633220531" stroke="#ef4444" stroke-width="1.5" stroke-linecap="round"/>
    <line x1="-96.81341886914436" y1="318.7044493450491" x2="131.13085285322612" y2="546.8303115109993" stroke="#ef4444" stroke-width="1.5" stroke-linecap="round"/>
    <line x1="-89.73953617747236" y1="311.63619753399547" x2="138.2047355448981" y2="539.7620596999457" stroke="#ef4444" stroke-width="1.5" stroke-linecap="round"/>
    <line x1="-82.66565348580036" y1="304.56794572294183" x2="145.2786182365701" y2="532.693807888892" stroke="#ef4444" stroke-width="1.5" stroke-linecap="round"/>
    <line x1="-75.59177079412837" y1="297.4996939118882" x2="152.3525009282421" y2="525.6255560778384" stroke="#ef4444" stroke-width="1.5" stroke-linecap="round"/>
    <line x1="-68.51788810245637" y1="290.4314421008345" x2="159.4263836199141" y2="518.5573042667847" stroke="#ef4444" stroke-width="1.5" stroke-linecap="round"/>
    <line x1="-61.44400541078438" y1="283.36319028978085" x2="166.5002663115861" y2="511.4890524557311" stroke="#ef4444" stroke-width="1.5" stroke-linecap="round"/>
    <line x1="-54.37012271911238" y1="276.29493847872715" x2="173.5741490032581" y2="504.4208006446774" stroke="#ef4444" stroke-width="1.5" stroke-linecap="round"/>
    <line x1="-47.296240027440376" y1="269.2266866676735" x2="180.6480316949301" y2="497.35254883362376" stroke="#ef4444" stroke-width="1.5" stroke-linecap="round"/>
    <line x1="-40.22235733576838" y1="262.15843485661986" x2="187.7219143866021" y2="490.2842970225701" stroke="#ef4444" stroke-width="1.5" stroke-linecap="round"/>
    <line x1="-33.14847464409638" y1="255.09018304556622" x2="194.7957970782741" y2="483.2160452115165" stroke="#ef4444" stroke-width="1.5" stroke-linecap="round"/>
    <line x1="-26.074591952424385" y1="248.02193123451252" x2="201.8696797699461" y2="476.1477934004628" stroke="#ef4444" stroke-width="1.5" stroke-linecap="round"/>
    <line x1="-19.000709260752387" y1="240.95367942345888" x2="208.9435624616181" y2="469.07954158940913" stroke="#ef4444" stroke-width="1.5" stroke-linecap="round"/>
    <line x1="-11.92682656908039" y1="233.88542761240524" x2="216.01744515329008" y2="462.0112897783555" stroke="#ef4444" stroke-width="1.5" stroke-linecap="round"/>
    <line x1="-4.852943877408393" y1="226.81717580135154" x2="223.09132784496208" y2="454.9430379673018" stroke="#ef4444" stroke-width="1.5" stroke-linecap="round"/>
    <line x1="2.2209388142636044" y1="219.7489239902979" x2="230.16521053663408" y2="447.87478615624815" stroke="#ef4444" stroke-width="1.5" stroke-linecap="round"/>
    <line x1="9.294821505935602" y1="212.68067217924425" x2="237.23909322830607" y2="440.8065343451945" stroke="#ef4444" stroke-width="1.5" stroke-linecap="round"/>
    <line x1="16.368704197607585" y1="205.61242036819056" x2="244.31297591997804" y2="433.7382825341408" stroke="#ef4444" stroke-width="1.5" stroke-linecap="round"/>
    <line x1="23.442586889279582" y1="198.5441685571369" x2="251.38685861165004" y2="426.67003072308717" stroke="#ef4444" stroke-width="1.5" stroke-linecap="round"/>
    <line x1="30.51646958095158" y1="191.47591674608327" x2="258.46074130332204" y2="419.6017789120335" stroke="#ef4444" stroke-width="1.5" stroke-linecap="round"/>
    <line x1="37.590352272623576" y1="184.40766493502957" x2="265.53462399499404" y2="412.5335271009798" stroke="#ef4444" stroke-width="1.5" stroke-linecap="round"/>
    <line x1="44.664234964295574" y1="177.33941312397593" x2="272.60850668666603" y2="405.4652752899262" stroke="#ef4444" stroke-width="1.5" stroke-linecap="round"/>
    <line x1="51.73811765596757" y1="170.2711613129223" x2="279.68238937833803" y2="398.39702347887254" stroke="#ef4444" stroke-width="1.5" stroke-linecap="round"/>
    <line x1="58.81200034763957" y1="163.20290950186865" x2="286.75627207001" y2="391.3287716678189" stroke="#ef4444" stroke-width="1.5" stroke-linecap="round"/>
    <line x1="65.88588303931157" y1="156.13465769081495" x2="293.830154761682" y2="384.2605198567652" stroke="#ef4444" stroke-width="1.5" stroke-linecap="round"/>
    <line x1="72.95976573098356" y1="149.0664058797613" x2="300.904037453354" y2="377.19226804571156" stroke="#ef4444" stroke-width="1.5" stroke-linecap="round"/>
    <line x1="80.03364842265556" y1="141.99815406870766" x2="307.977920145026" y2="370.1240162346579" stroke="#ef4444" stroke-width="1.5" stroke-linecap="round"/>
    <line x1="87.10753111432756" y1="134.92990225765396" x2="315.051802836698" y2="363.0557644236042" stroke="#ef4444" stroke-width="1.5" stroke-linecap="round"/>
    <line x1="94.18141380599955" y1="127.86165044660032" x2="322.12568552837" y2="355.9875126125506" stroke="#ef4444" stroke-width="1.5" stroke-linecap="round"/>
    <line x1="101.25529649767155" y1="120.79339863554668" x2="329.199568220042" y2="348.91926080149693" stroke="#ef4444" stroke-width="1.5" stroke-linecap="round"/>
    <line x1="108.32917918934355" y1="113.72514682449301" x2="336.273450911714" y2="341.85100899044323" stroke="#ef4444" stroke-width="1.5" stroke-linecap="round"/>
  </g>
  <rect x="40" y="300" width="140" height="80" fill="none" stroke="#ef4444" stroke-width="2" opacity="1"/>
  <text x="80" y="346" font-family="Inter, sans-serif" font-size="16" text-anchor="start" fill="#7f1d1d" opacity="1">reject</text>
  <path d="M 110 80 L 110 140" fill="none" stroke="#334155" stroke-width="2" opacity="1"/>  <polygon points="110,140 103.91048252244278,127.39374056706252 116.08951747755722,127.39374056706252" fill="#334155" stroke="none"/>
  <path d="M 180 190 L 240 190" fill="none" stroke="#334155" stroke-width="2" opacity="1"/>  <polygon points="240,190 227.39374056706254,196.08951747755722 227.39374056706254,183.91048252244278" fill="#334155" stroke="none"/>
  <path d="M 110 240 L 110 300" fill="none" stroke="#334155" stroke-width="2" opacity="1"/>  <polygon points="110,300 103.91048252244278,287.39374056706254 116.08951747755722,287.39374056706254" fill="#334155" stroke="none"/>
  <text x="190" y="184" font-family="Inter, sans-serif" font-size="14" text-anchor="start" fill="#52525b" opacity="1">yes</text>
  <text x="120" y="274" font-family="Inter, sans-serif" font-size="14" text-anchor="start" fill="#52525b" opacity="1">no</text>
</svg>