<svg xmlns="http://www.w3.org/2000/svg" viewBox="0 20 404 239.2" width="404" height="239.2">
  <path d="M 30 80 L 36 91.82080826645358 L 42 102.58569893580142 L 48 111.33307638509933 L 54 117.28156343868905 L 60 119.89979946416219 L 66 118.95390523512782 L 72 114.52837466595494 L 78 107.01852722204605 L 84 97.09519520935321 L 90 85.64480032239469 L 96 73.69017223427007 L 102 62.29918226820592 L 108 52.48935363264105 L 114 45.13696910345647 L 120 40.89879529339612 L 126 40.15341564656637 L 132 42.9674127068907 L 138 49.08942049776049 L 144 57.9725782960945 L 150 68.82338007204297 L 156 80.67255601937399 L 162 92.46165454053511 L 168 103.13759057552798 L 174 111.74671455396611 L 180 117.51999907098956 L 186 119.94173381498419 L 192 118.79559243380345 L 198 114.18395632353122 L 204 106.51876920328733 L 210 96.48473940967027 L 216 84.97817694028254 L 222 73.02692875108082 L 228 61.69856424898714 L 234 52.0050124962583 L 240 44.81216960113319 L 246 40.76255079734035 L 252 40.21789647184043 L 258 43.22685897341297 L 264 49.52065664323867 L 270 58.5370832799826 L 276 69.47072834536789 L 282 81.34492188884546 L 288 93.09897756550772 L 294 103.68294058828891 L 300 112.15137706206482 L 306 117.74782677776417 L 312 119.9723755499167 L 318 118.62631106197112 L 324 113.82987324571738 L 330 106.01151360628467 L 336 95.86962292522455 L 342 84.31014609197776 L 348 72.3656567450325 L 354 61.103120544061355 L 360 51.52858630523508 L 366 44.497318656739814 L 372 40.63739979673429 L 378 40.29362478117467 L 384 43.49670200835262" fill="none" stroke="#8b5cf6" stroke-width="2.5" opacity="1" stroke-linecap="round" stroke-linejoin="round"/>
  <path d="M 250 165 L 250.04520092481064 164.41285547775988 L 250.3564087963454 162.71770506931824 L 251.1741229408078 160.1057810930592 L 252.6900491750078 156.87140054404858 L 255.02806580566954 153.37867673059029 L 258.2311050238669 150.02107433002067 L 262.255103057711 147.17892813060533 L 266.97056274847716 145.18019484660536 L 272.17161547914657 144.26914090375192 L 277.59182217869807 144.58647740078015 L 282.9253712004955 146.1628151113636 L 287.8518643587874 148.92546722489556 L 292.06257149632324 152.71684097945663 L 295.2859054421468 157.3211833991437 L 297.3099341889856 162.49548285510576 L 298 168 L 297.3099341889856 173.62423592786504 L 295.2859054421468 179.20507131263696 L 292.06257149632324 184.63517124565755 L 287.8518643587874 189.86132933950802 L 282.92537120049553 194.8739773038578 L 277.59182217869807 199.69037894114786 L 272.17161547914657 204.3348722406965 L 266.97056274847716 208.81980515339464 L 262.255103057711 213.13050433481078 L 258.2311050238669 217.21678795381274 L 255.02806580566957 220.99232966580723 L 252.6900491750078 224.34180289154784 L 251.1741229408078 227.13440787020772 L 250.3564087963454 229.24132159313967 L 250.04520092481064 230.55398012940475 L 250 231 L 249.95479907518936 230.55398012940475 L 249.6435912036546 229.24132159313965 L 248.8258770591922 227.13440787020772 L 247.3099508249922 224.34180289154784 L 244.97193419433046 220.99232966580723 L 241.76889497613308 217.21678795381274 L 237.74489694228905 213.1305043348108 L 233.02943725152286 208.81980515339464 L 227.82838452085346 204.33487224069654 L 222.4081778213019 199.69037894114788 L 217.0746287995045 194.8739773038578 L 212.14813564121263 189.86132933950805 L 207.93742850367676 184.63517124565755 L 204.71409455785317 179.205071312637 L 202.6900658110144 173.62423592786504 L 202 168 L 202.6900658110144 162.4954828551058 L 204.71409455785317 157.32118339914373 L 207.93742850367673 152.71684097945666 L 212.1481356412126 148.92546722489556 L 217.0746287995045 146.1628151113636 L 222.40817782130188 144.58647740078015 L 227.82838452085346 144.26914090375192 L 233.02943725152284 145.18019484660536 L 237.744896942289 147.17892813060533 L 241.76889497613308 150.02107433002067 L 244.97193419433043 153.37867673059029 L 247.3099508249922 156.87140054404853 L 248.8258770591922 160.10578109305916 L 249.6435912036546 162.7177050693182 L 249.95479907518936 164.41285547775988" fill="none" stroke="#e11d48" stroke-width="3" opacity="1" stroke-linecap="round" stroke-linejoin="round"/>
  <path d="M 100 220 L 220 200" fill="none" stroke="#334155" stroke-width="2" opacity="1"/>  <polygon points="220,200 208.5663727995875,208.07911932341563 206.56415178661015,196.06579324555145" fill="#334155" stroke="none"/>
  <text x="20" y="236" font-family="Inter, sans-serif" font-size="16" text-anchor="start" fill="#334155" opacity="1">freedraw!</text>
  <text x="30" y="56" font-family="Inter, sans-serif" font-size="16" text-anchor="start" fill="#334155" opacity="1">sin wave via FreeDraw</text>
</svg>